<svg width="30" height="30" viewBox="0 0 30 30" fill="none" xmlns="http://www.w3.org/2000/svg">
<path d="M16.25 14.6875H24.6432C25.0686 14.2536 25.6195 13.9433 26.237 13.8151C25.9447 7.51671 20.7458 2.5 14.375 2.5C7.81661 2.5 2.5 7.81661 2.5 14.375C2.5 20.7237 7.48215 25.9089 13.75 26.2339V24.375V24.3558C8.51832 24.0333 4.375 19.688 4.375 14.375C4.375 8.9567 8.68425 4.54489 14.0625 4.37979V12.5C14.0625 13.7081 15.0419 14.6875 16.25 14.6875ZM16.25 12.8125C16.0774 12.8125 15.9375 12.6726 15.9375 12.5V4.49635C20.2091 5.1666 23.5834 8.54094 24.2536 12.8125H16.25ZM26.875 15C25.8395 15 25 15.8395 25 16.875V26.875C25 27.9105 25.8395 28.75 26.875 28.75C27.9105 28.75 28.75 27.9105 28.75 26.875V16.875C28.75 15.8395 27.9105 15 26.875 15ZM16.875 22.5C15.8395 22.5 15 23.3395 15 24.375V26.875C15 27.9105 15.8395 28.75 16.875 28.75C17.9105 28.75 18.75 27.9105 18.75 26.875V24.375C18.75 23.3395 17.9105 22.5 16.875 22.5ZM20 20.625C20 19.5895 20.8395 18.75 21.875 18.75C22.9105 18.75 23.75 19.5895 23.75 20.625V26.875C23.75 27.9105 22.9105 28.75 21.875 28.75C20.8395 28.75 20 27.9105 20 26.875V20.625Z" fill="#212121"/>
</svg>
