<svg width="40" height="40" viewBox="0 0 40 40" fill="none" xmlns="http://www.w3.org/2000/svg">
<path d="M35.865 21.375C35.865 19.5768 34.8078 18.0254 33.2811 17.3085C32.4993 10.0417 26.3484 4.385 18.875 4.385C10.8724 4.385 4.385 10.8724 4.385 18.875C4.385 26.3484 10.0416 32.4992 17.3086 33.2812C18.0255 34.8079 19.5768 35.865 21.375 35.865C22.3004 35.865 23.1604 35.585 23.875 35.1052C24.5896 35.585 25.4496 35.865 26.375 35.865C27.3004 35.865 28.1604 35.585 28.875 35.1052C29.5896 35.585 30.4496 35.865 31.375 35.865C33.8547 35.865 35.865 33.8547 35.865 31.375V21.375ZM21.94 24.4202C21.7549 24.397 21.5664 24.385 21.375 24.385C19.9065 24.385 18.6026 25.0901 17.7834 26.1801C14.2235 25.6535 11.49 22.5826 11.49 18.875C11.49 15.8365 13.3254 13.2262 15.9475 12.0928V17C15.9475 19.6523 18.0977 21.8025 20.75 21.8025H23.3549C22.6163 22.4743 22.1026 23.3889 21.94 24.4202ZM23.0525 12.7841C23.8015 13.299 24.451 13.9485 24.9659 14.6975H23.0525V12.7841Z" fill="white" stroke="#3F3F3F" stroke-width="5.23"/>
</svg>
