<svg width="30" height="30" viewBox="0 0 30 30" fill="none" xmlns="http://www.w3.org/2000/svg">
<path d="M17.0635 3.66281C16.016 2.77906 14.484 2.77906 13.4365 3.66281L4.99895 10.781C4.36551 11.3154 4 12.1019 4 12.9307V24.5621C4 25.7702 4.97938 26.7496 6.1875 26.7496H9.9375C11.1456 26.7496 12.125 25.7702 12.125 24.5621V19.5588C12.125 18.7097 12.8022 18.0188 13.6461 17.9968H16.8539C17.6978 18.0188 18.375 18.7097 18.375 19.5588V24.5621C18.375 25.7702 19.3544 26.7496 20.5625 26.7496H24.3125C25.5206 26.7496 26.5 25.7702 26.5 24.5621V12.9307C26.5 12.1019 26.1345 11.3154 25.501 10.781L17.0635 3.66281Z" fill="white" stroke="#3F3F3F" stroke-width="1.2"/>
</svg>
