<svg width="30" height="30" viewBox="0 0 30 30" fill="none" xmlns="http://www.w3.org/2000/svg">
<path d="M16.8135 3.16647C15.766 2.28272 14.234 2.28272 13.1865 3.16647L4.74895 10.2846C4.11551 10.819 3.75 11.6056 3.75 12.4343V24.0658C3.75 25.2739 4.72938 26.2533 5.9375 26.2533H9.6875C10.8956 26.2533 11.875 25.2739 11.875 24.0658V19.0625C11.875 18.2134 12.5522 17.5225 13.3961 17.5005H16.6039C17.4478 17.5225 18.125 18.2134 18.125 19.0625V24.0658C18.125 25.2739 19.1044 26.2533 20.3125 26.2533H24.0625C25.2706 26.2533 26.25 25.2739 26.25 24.0658V12.4343C26.25 11.6056 25.8845 10.819 25.251 10.2846L16.8135 3.16647Z" fill="#3F3F3F"/>
</svg>
