<svg width="30" height="30" viewBox="0 0 30 30" fill="none" xmlns="http://www.w3.org/2000/svg">
<path d="M8.75 7.8125C8.75 7.29474 9.16799 6.875 9.68361 6.875H17.1914C17.707 6.875 18.125 7.29474 18.125 7.8125C18.125 8.33026 17.707 8.75 17.1914 8.75H9.68361C9.16799 8.75 8.75 8.33026 8.75 7.8125ZM9.68361 18.125C9.16799 18.125 8.75 18.5448 8.75 19.0625C8.75 19.5802 9.16799 20 9.68361 20H17.1914C17.707 20 18.125 19.5802 18.125 19.0625C18.125 18.5448 17.707 18.125 17.1914 18.125H9.68361ZM8.75 13.4375C8.75 12.9198 9.16799 12.5 9.68361 12.5H17.1914C17.707 12.5 18.125 12.9198 18.125 13.4375C18.125 13.9552 17.707 14.375 17.1914 14.375H9.68361C9.16799 14.375 8.75 13.9552 8.75 13.4375ZM5 5.3125C5 3.7592 6.2592 2.5 7.8125 2.5H19.0625C20.6158 2.5 21.875 3.7592 21.875 5.3125V21.5625C21.875 23.1157 20.6158 24.375 19.0625 24.375H7.8125C6.2592 24.375 5 23.1157 5 21.5625V5.3125ZM6.87984 5.21665C6.87664 5.24816 6.875 5.28014 6.875 5.3125V21.5625C6.875 22.0802 7.29474 22.5 7.8125 22.5H19.0625C19.5802 22.5 20 22.0802 20 21.5625V5.3125C20 4.79474 19.5802 4.375 19.0625 4.375H7.8125C7.32709 4.375 6.92785 4.7439 6.87984 5.21665ZM10.9386 27.5C9.71401 27.5 8.67222 26.7174 8.28614 25.625H19.0636C21.3073 25.625 23.1261 23.8061 23.1261 21.5625V11.1711L24.1774 12.2223C24.7048 12.7497 25.0011 13.4651 25.0011 14.2111V21.5625C25.0011 24.8417 22.3428 27.5 19.0636 27.5H10.9386Z" fill="#212121"/>
</svg>
