<svg width="32" height="30" viewBox="0 0 32 30" fill="none" xmlns="http://www.w3.org/2000/svg">
<rect width="32" height="29.7931" rx="10" fill="#7CC558"/>
<path d="M9.79314 13.2414C9.79314 10.7275 11.831 8.68965 14.3449 8.68965C16.8587 8.68965 18.8966 10.7275 18.8966 13.2414C18.8966 15.7553 16.8587 17.7931 14.3449 17.7931C11.831 17.7931 9.79314 15.7553 9.79314 13.2414ZM14.3449 7.44827C11.1454 7.44827 8.55176 10.0419 8.55176 13.2414C8.55176 16.4408 11.1454 19.0345 14.3449 19.0345C15.721 19.0345 16.985 18.5546 17.9789 17.7532L22.3888 22.163C22.6312 22.4054 23.0241 22.4054 23.2665 22.163C23.5089 21.9206 23.5089 21.5277 23.2665 21.2853L18.8567 16.8754C19.6581 15.8815 20.138 14.6175 20.138 13.2414C20.138 10.0419 17.5443 7.44827 14.3449 7.44827Z" fill="#F5F5F5"/>
</svg>
